<svg xmlns="http://www.w3.org/2000/svg" viewBox="0 0 68.04 130.27"><defs><style>.cls-1{fill:#536cff;}</style></defs><title>Asset 32new</title><g id="Layer_2" data-name="Layer 2"><g id="Layer_1-2" data-name="Layer 1"><path class="cls-1" d="M27.15,130.27V115a61.64,61.64,0,0,1-14-3.51A43.61,43.61,0,0,1,0,103.43l11.29-17.7a54.06,54.06,0,0,0,11.13,6.56,27,27,0,0,0,9.92,2q5.79,0,8.24-2C42.2,90.87,43,88.68,43,85.73a6.7,6.7,0,0,0-2.9-5.34,39.64,39.64,0,0,0-7.32-4.73q-4.42-2.28-9.46-4.73a57.61,57.61,0,0,1-9.46-6.1,31.22,31.22,0,0,1-7.32-8.24,21.48,21.48,0,0,1-2.9-11.44q0-11.59,6.1-19.22Q16,18.31,27.15,15.86V0H44.24V15.56a35.39,35.39,0,0,1,12.81,4.58,46.53,46.53,0,0,1,10.22,8.23l-13,15a34.92,34.92,0,0,0-7.94-5.49A17.47,17.47,0,0,0,38.44,36q-4.87,0-7.32,1.68t-2.44,6.25a6.16,6.16,0,0,0,2.9,5,47.18,47.18,0,0,0,7.32,4.27l9.46,4.57a50.89,50.89,0,0,1,9.45,5.95,30.69,30.69,0,0,1,7.33,8.39A22.65,22.65,0,0,1,68,83.9a31.58,31.58,0,0,1-6,19.22q-5.81,8.09-17.85,11v16.17Z"/></g></g></svg>