<svg xmlns="http://www.w3.org/2000/svg" viewBox="0 0 98.05 187.74"><defs><style>.cls-1{fill:#536cff;}</style></defs><title>Asset 27new</title><g id="Layer_2" data-name="Layer 2"><g id="Layer_1-2" data-name="Layer 1"><path class="cls-1" d="M39.13,187.74v-22a88.45,88.45,0,0,1-20.22-5.06A62.49,62.49,0,0,1,0,149.05l16.27-25.5A77.44,77.44,0,0,0,32.32,133a38.68,38.68,0,0,0,14.29,2.86q8.36,0,11.87-2.86Q62,129.92,62,123.55c0-2.93-1.4-5.49-4.18-7.69A57.17,57.17,0,0,0,47.27,109q-6.37-3.3-13.63-6.81A83.68,83.68,0,0,1,20,93.43,45.38,45.38,0,0,1,9.45,81.56Q5.28,74.75,5.28,65.07q0-16.71,8.79-27.7,9-11,25.06-14.51V0H63.75V22.42A51.24,51.24,0,0,1,82.22,29,67.18,67.18,0,0,1,97,40.89L78.26,62.44a50.1,50.1,0,0,0-11.43-7.92A25.2,25.2,0,0,0,55.4,51.88q-7,0-10.55,2.42t-3.52,9q0,4.18,4.18,7.26a66.88,66.88,0,0,0,10.55,6.15l13.63,6.6a73.6,73.6,0,0,1,13.63,8.57A43.86,43.86,0,0,1,93.87,104q4.18,7,4.18,16.92,0,16.05-8.57,27.7-8.36,11.65-25.73,15.83v23.3Z"/></g></g></svg>